<svg width="24" height="24" viewBox="0 0 24 24" fill="none" xmlns="http://www.w3.org/2000/svg">
<path d="M5 9.923C5 14.775 9.244 18.787 11.123 20.325C11.393 20.545 11.528 20.657 11.729 20.713C11.885 20.757 12.115 20.757 12.271 20.713C12.472 20.657 12.607 20.546 12.877 20.325C14.756 18.787 19 14.775 19 9.923C18.9991 9.01204 18.8175 8.11031 18.4656 7.27005C18.1137 6.4298 17.5985 5.66773 16.95 5.028C15.6311 3.72704 13.8526 2.99838 12 3C10.1474 2.99838 8.3689 3.72704 7.05 5.028C6.40141 5.66769 5.88624 6.42976 5.53434 7.27002C5.18245 8.11028 5.00082 9.01203 5 9.923Z" stroke="black" stroke-width="1.5" stroke-linecap="round" stroke-linejoin="round"/>
<path d="M10 9C10 9.53043 10.2107 10.0391 10.5858 10.4142C10.9609 10.7893 11.4696 11 12 11C12.5304 11 13.0391 10.7893 13.4142 10.4142C13.7893 10.0391 14 9.53043 14 9C14 8.46957 13.7893 7.96086 13.4142 7.58579C13.0391 7.21071 12.5304 7 12 7C11.4696 7 10.9609 7.21071 10.5858 7.58579C10.2107 7.96086 10 8.46957 10 9Z" stroke="black" stroke-width="1.5" stroke-linecap="round" stroke-linejoin="round"/>
</svg>
