<svg width="24" height="24" viewBox="0 0 24 24" fill="none" xmlns="http://www.w3.org/2000/svg">
<path d="M17.217 19.332C16.5611 18.5973 15.7571 18.0097 14.858 17.6078C13.9589 17.2059 12.9849 16.9988 12 17C9.927 17 8.065 17.9 6.783 19.332M12 21C10.8181 21 9.64778 20.7672 8.55585 20.3149C7.46392 19.8626 6.47177 19.1997 5.63604 18.364C4.80031 17.5282 4.13738 16.5361 3.68508 15.4442C3.23279 14.3522 3 13.1819 3 12C3 10.8181 3.23279 9.64778 3.68508 8.55585C4.13738 7.46392 4.80031 6.47177 5.63604 5.63604C6.47177 4.80031 7.46392 4.13738 8.55585 3.68508C9.64778 3.23279 10.8181 3 12 3C14.3869 3 16.6761 3.94821 18.364 5.63604C20.0518 7.32387 21 9.61305 21 12C21 14.3869 20.0518 16.6761 18.364 18.364C16.6761 20.0518 14.3869 21 12 21ZM12 14C11.606 14 11.2159 13.9224 10.8519 13.7716C10.488 13.6209 10.1573 13.3999 9.87868 13.1213C9.6001 12.8427 9.37913 12.512 9.22836 12.1481C9.0776 11.7841 9 11.394 9 11C9 10.606 9.0776 10.2159 9.22836 9.85195C9.37913 9.48797 9.6001 9.15726 9.87868 8.87868C10.1573 8.6001 10.488 8.37913 10.8519 8.22836C11.2159 8.0776 11.606 8 12 8C12.7956 8 13.5587 8.31607 14.1213 8.87868C14.6839 9.44129 15 10.2044 15 11C15 11.7956 14.6839 12.5587 14.1213 13.1213C13.5587 13.6839 12.7956 14 12 14Z" stroke="#171F31" stroke-width="1.5" stroke-linecap="round" stroke-linejoin="round"/>
</svg>
