<svg width="15" height="15" viewBox="0 0 15 15" fill="none" xmlns="http://www.w3.org/2000/svg">
<path d="M9.62504 5.99991L6.79171 8.99991L5.37504 7.49991M8.38262 1.09416L9.2475 1.87416C9.46566 2.07066 9.73625 2.18916 10.021 2.21391L11.1543 2.30991C11.4765 2.33714 11.7789 2.48494 12.0075 2.72682C12.236 2.9687 12.3758 3.28885 12.4017 3.62991L12.4917 4.82991C12.515 5.13216 12.6277 5.41941 12.8132 5.64966L13.5499 6.56466C13.7599 6.82528 13.8752 7.15661 13.8752 7.49916C13.8752 7.84171 13.7599 8.17304 13.5499 8.43366L12.8132 9.34941C12.6277 9.58041 12.515 9.86691 12.4924 10.1692L12.4017 11.3692C12.376 11.7102 12.2364 12.0305 12.008 12.2725C11.7795 12.5145 11.4772 12.6625 11.155 12.6899L10.0217 12.7859C9.73638 12.8098 9.46545 12.9285 9.2475 13.1249L8.38262 13.9049C8.13642 14.1271 7.82352 14.2491 7.50004 14.2491C7.17656 14.2491 6.86366 14.1271 6.61746 13.9049L5.75329 13.1249C5.53515 12.9283 5.26395 12.8097 4.97837 12.7859L3.84504 12.6899C3.52281 12.6625 3.22036 12.5144 2.9919 12.2722C2.76345 12.03 2.62393 11.7096 2.59837 11.3684L2.50771 10.1692C2.48477 9.86722 2.37248 9.58063 2.18683 9.35016L1.45016 8.43366C1.24059 8.17315 1.12549 7.84212 1.12549 7.49991C1.12549 7.1577 1.24059 6.82667 1.45016 6.56616L2.18683 5.64966C2.37312 5.41866 2.48433 5.13216 2.507 4.82991L2.59766 3.63066C2.62373 3.28933 2.76371 2.96898 2.99253 2.72698C3.22135 2.48497 3.52406 2.33712 3.84646 2.30991L4.97837 2.21466C5.26378 2.19053 5.53472 2.07163 5.75258 1.87491L6.61746 1.09491C6.86366 0.872753 7.17656 0.750732 7.50004 0.750732C7.82352 0.750732 8.13642 0.872003 8.38262 1.09416Z" stroke="white" stroke-width="1.5" stroke-linecap="round" stroke-linejoin="round"/>
</svg>
