<svg width="24" height="24" viewBox="0 0 24 24" fill="none" xmlns="http://www.w3.org/2000/svg">
<path d="M3 11H4.045M4.045 11H19.955M4.045 11C4.057 10.948 4.07 10.898 4.085 10.847C4.13855 10.6875 4.20201 10.5316 4.275 10.38L5.822 6.9C6.127 6.213 6.28 5.868 6.522 5.616C6.736 5.393 6.998 5.223 7.288 5.118C7.617 5 7.993 5 8.746 5H15.254C16.006 5 16.384 5 16.712 5.118C17.002 5.223 17.264 5.393 17.477 5.616C17.719 5.868 17.872 6.212 18.177 6.899L19.73 10.392C19.829 10.615 19.88 10.729 19.915 10.847C19.93 10.897 19.943 10.948 19.955 11M4.045 11C4.03247 11.0575 4.02246 11.1156 4.015 11.174C4 11.3 4 11.426 4 11.68V17M19.955 11H21M19.955 11C19.968 11.058 19.977 11.116 19.984 11.174C20 11.298 20 11.424 20 11.674V17M4 17H8M4 17V18C4 18.5304 4.21071 19.0391 4.58579 19.4142C4.96086 19.7893 5.46957 20 6 20C6.53043 20 7.03914 19.7893 7.41421 19.4142C7.78929 19.0391 8 18.5304 8 18V17M20 17H16M20 17V18C20 18.5304 19.7893 19.0391 19.4142 19.4142C19.0391 19.7893 18.5304 20 18 20C17.4696 20 16.9609 19.7893 16.5858 19.4142C16.2107 19.0391 16 18.5304 16 18V17M16 17H8" stroke="black" stroke-width="1.5" stroke-linecap="round" stroke-linejoin="round"/>
</svg>
