<svg width="19" height="19" viewBox="0 0 19 19" fill="none" xmlns="http://www.w3.org/2000/svg">
<path d="M7.5 6.5L9.75 4.25M9.75 4.25L12 6.5M9.75 4.25V8V11.75M6 7.99994C5.301 7.99994 4.9515 7.99994 4.67625 8.11394C4.49414 8.18933 4.32866 8.29986 4.18929 8.43924C4.04992 8.57861 3.93938 8.74408 3.864 8.92619C3.75 9.20144 3.75 9.55094 3.75 10.2499V13.8499C3.75 14.6899 3.75 15.1099 3.9135 15.4309C4.05731 15.7132 4.28677 15.9426 4.569 16.0864C4.88925 16.2499 5.30925 16.2499 6.14775 16.2499H13.353C14.1915 16.2499 14.6108 16.2499 14.931 16.0864C15.213 15.9424 15.4425 15.7129 15.5865 15.4309C15.75 15.1099 15.75 14.6907 15.75 13.8522V10.2499C15.75 9.55094 15.75 9.20144 15.636 8.92619C15.5606 8.74408 15.4501 8.57861 15.3107 8.43924C15.1713 8.29986 15.0059 8.18933 14.8237 8.11394C14.5485 7.99994 14.199 7.99994 13.5 7.99994" stroke="white" stroke-width="1.5" stroke-linecap="round" stroke-linejoin="round"/>
</svg>
