<svg width="24" height="24" viewBox="0 0 24 24" fill="none" xmlns="http://www.w3.org/2000/svg">
<path d="M6 7.2V16.685C6 18.046 6 18.727 6.204 19.143C6.38855 19.5194 6.68672 19.8283 7.05637 20.0261C7.42602 20.2238 7.84846 20.3004 8.264 20.245C8.724 20.185 9.29 19.807 10.422 19.052L10.425 19.05C10.874 18.75 11.098 18.601 11.333 18.518C11.7643 18.3656 12.2347 18.3656 12.666 18.518C12.901 18.601 13.126 18.751 13.577 19.052C14.71 19.807 15.277 20.184 15.737 20.245C16.1524 20.3002 16.5746 20.2235 16.944 20.0257C17.3135 19.828 17.6115 19.5192 17.796 19.143C18 18.727 18 18.046 18 16.685V7.197C18 6.079 18 5.519 17.782 5.092C17.5899 4.71558 17.2836 4.40963 16.907 4.218C16.48 4 15.92 4 14.8 4H9.2C8.08 4 7.52 4 7.092 4.218C6.71565 4.40969 6.40969 4.71565 6.218 5.092C6 5.52 6 6.08 6 7.2Z" stroke="black" stroke-width="1.5" stroke-linecap="round" stroke-linejoin="round"/>
</svg>
