<svg width="18" height="18" viewBox="0 0 18 18" fill="none" xmlns="http://www.w3.org/2000/svg">
<g id="Icon/call">
<path id="Vector" d="M10.4067 14.3321L10.4065 14.332C8.91388 13.6317 7.59359 12.7067 6.44372 11.5564L6.44361 11.5563C5.29325 10.4064 4.36827 9.08612 3.668 7.59348L3.66793 7.59334C2.97118 6.10972 2.625 4.5922 2.625 3.0375C2.625 2.90526 2.66509 2.81524 2.74016 2.74016C2.81524 2.66509 2.90526 2.625 3.0375 2.625H6.075C6.16201 2.625 6.23467 2.65039 6.30629 2.70898C6.37145 2.7623 6.40463 2.82158 6.41627 2.90303L6.41738 2.91078L6.4188 2.91847L6.90479 5.53534C6.92353 5.67143 6.91904 5.78249 6.89958 5.87297C6.8846 5.94118 6.85069 6.00648 6.78484 6.07233L6.78482 6.07232L6.78211 6.07508L4.98212 7.91258L4.78197 8.1169L4.92608 8.36395C5.46839 9.29362 6.14487 10.1627 6.95359 10.9714C7.76236 11.7802 8.65493 12.4801 9.63082 13.0708L9.88231 13.223L10.0902 13.0152L11.8527 11.2527C11.9145 11.1908 12.005 11.1341 12.1395 11.0922C12.2676 11.0526 12.3865 11.0427 12.4997 11.0574L15.0732 11.5796C15.1701 11.6007 15.2399 11.6435 15.2965 11.7093C15.35 11.772 15.375 11.8384 15.375 11.925V14.9625C15.375 15.0947 15.3349 15.1848 15.2598 15.2598C15.1848 15.3349 15.0947 15.375 14.9625 15.375C13.4078 15.375 11.8903 15.0288 10.4067 14.3321Z" fill="white" stroke="black" stroke-width="0.75"/>
</g>
</svg>
