<svg width="18" height="18" viewBox="0 0 18 18" fill="none" xmlns="http://www.w3.org/2000/svg">
<g id="Icon/check">
<rect width="18" height="18" rx="9" fill="white"/>
<path id="Vector" d="M7.23493 10.4648L7.5001 10.7299L7.76526 10.4648L12.1903 6.03977L11.9251 5.77461L12.1903 6.03977C12.2506 5.97947 12.3269 5.94336 12.4501 5.94336C12.5733 5.94336 12.6496 5.97947 12.7099 6.03977C12.7702 6.10008 12.8063 6.17641 12.8063 6.29961C12.8063 6.42281 12.7702 6.49914 12.7099 6.55944L7.75993 11.5094C7.67552 11.5939 7.59414 11.6246 7.5001 11.6246C7.40605 11.6246 7.32467 11.5939 7.24026 11.5094L5.29026 9.55944C5.22996 9.49914 5.19385 9.42281 5.19385 9.29961C5.19385 9.17641 5.22996 9.10008 5.29026 9.03977C5.35056 8.97947 5.42689 8.94336 5.5501 8.94336C5.6733 8.94336 5.74963 8.97947 5.80993 9.03977L7.23493 10.4648Z" fill="white" stroke="#171F31" stroke-width="0.75"/>
</g>
</svg>
