<svg width="18" height="18" viewBox="0 0 18 18" fill="none" xmlns="http://www.w3.org/2000/svg">
<g id="Icon/down">
<path id="Vector" d="M9.0001 12.2313C8.9001 12.2313 8.80335 12.2126 8.70985 12.1751C8.61585 12.1376 8.5376 12.0876 8.4751 12.0251L5.0251 8.5751C4.8876 8.4376 4.81885 8.2626 4.81885 8.0501C4.81885 7.8376 4.8876 7.6626 5.0251 7.5251C5.1626 7.3876 5.3376 7.31885 5.5501 7.31885C5.7626 7.31885 5.9376 7.3876 6.0751 7.5251L9.0001 10.4501L11.9251 7.5251C12.0626 7.3876 12.2376 7.31885 12.4501 7.31885C12.6626 7.31885 12.8376 7.3876 12.9751 7.5251C13.1126 7.6626 13.1813 7.8376 13.1813 8.0501C13.1813 8.2626 13.1126 8.4376 12.9751 8.5751L9.5251 12.0251C9.4501 12.1001 9.36885 12.1531 9.28135 12.1841C9.19385 12.2156 9.1001 12.2313 9.0001 12.2313Z" fill="#6B6B6B"/>
</g>
</svg>
