<svg width="30" height="30" viewBox="0 0 30 30" fill="none" xmlns="http://www.w3.org/2000/svg">
    <path
        d="M16.625 21.625L10.875 15.875C10.75 15.75 10.6617 15.6146 10.61 15.4687C10.5575 15.3229 10.5312 15.1667 10.5312 15C10.5312 14.8333 10.5575 14.6771 10.61 14.5312C10.6617 14.3854 10.75 14.25 10.875 14.125L16.625 8.375C16.8542 8.14583 17.1458 8.03125 17.5 8.03125C17.8542 8.03125 18.1458 8.14583 18.375 8.375C18.6042 8.60417 18.7188 8.89583 18.7188 9.25C18.7188 9.60417 18.6042 9.89583 18.375 10.125L13.5 15L18.375 19.875C18.6042 20.1042 18.7188 20.3958 18.7188 20.75C18.7188 21.1042 18.6042 21.3958 18.375 21.625C18.1458 21.8542 17.8542 21.9687 17.5 21.9687C17.1458 21.9687 16.8542 21.8542 16.625 21.625Z"
        fill="black" />
</svg>