<svg width="28" height="28" viewBox="0 0 28 28" fill="none" xmlns="http://www.w3.org/2000/svg">
<path d="M12.8333 21.0002C12.8333 21.3096 12.9563 21.6063 13.1751 21.8251C13.3938 22.0439 13.6906 22.1668 14 22.1668C14.3094 22.1668 14.6062 22.0439 14.825 21.8251C15.0438 21.6063 15.1667 21.3096 15.1667 21.0002C15.1667 20.6907 15.0438 20.394 14.825 20.1752C14.6062 19.9564 14.3094 19.8335 14 19.8335C13.6906 19.8335 13.3938 19.9564 13.1751 20.1752C12.9563 20.394 12.8333 20.6907 12.8333 21.0002ZM12.8333 14.0002C12.8333 14.3096 12.9563 14.6063 13.1751 14.8251C13.3938 15.0439 13.6906 15.1668 14 15.1668C14.3094 15.1668 14.6062 15.0439 14.825 14.8251C15.0438 14.6063 15.1667 14.3096 15.1667 14.0002C15.1667 13.6907 15.0438 13.394 14.825 13.1752C14.6062 12.9564 14.3094 12.8335 14 12.8335C13.6906 12.8335 13.3938 12.9564 13.1751 13.1752C12.9563 13.394 12.8333 13.6907 12.8333 14.0002ZM12.8333 7.00016C12.8333 7.30958 12.9563 7.60633 13.1751 7.82512C13.3938 8.04391 13.6906 8.16683 14 8.16683C14.3094 8.16683 14.6062 8.04391 14.825 7.82512C15.0438 7.60633 15.1667 7.30958 15.1667 7.00016C15.1667 6.69074 15.0438 6.394 14.825 6.17521C14.6062 5.95641 14.3094 5.8335 14 5.8335C13.6906 5.8335 13.3938 5.95641 13.1751 6.17521C12.9563 6.394 12.8333 6.69074 12.8333 7.00016Z" stroke="black" stroke-width="1.5" stroke-linecap="round" stroke-linejoin="round"/>
</svg>
