<svg width="20" height="20" viewBox="0 0 20 20" fill="none" xmlns="http://www.w3.org/2000/svg">
<path d="M9.22215 3.04675L9.66665 2.9971V2.54984V1.33317H10.3333V2.54984V2.9971L10.7778 3.04675C12.355 3.22292 13.8254 3.93014 14.9475 5.0523C16.0697 6.17446 16.7769 7.64485 16.9531 9.22201L17.0027 9.6665H17.45H18.6666V10.3332H17.45H17.0027L16.9531 10.7777C16.7769 12.3548 16.0697 13.8252 14.9475 14.9474C13.8254 16.0695 12.355 16.7768 10.7778 16.9529L10.3333 17.0026V17.4498V18.6665H9.66665V17.4498V17.0026L9.22215 16.9529C7.64499 16.7768 6.1746 16.0695 5.05244 14.9474C3.93029 13.8252 3.22306 12.3548 3.04689 10.7777L2.99724 10.3332H2.54998H1.33331V9.6665H2.54998H2.99724L3.04689 9.22201C3.22306 7.64485 3.93029 6.17446 5.05244 5.0523C6.1746 3.93014 7.64499 3.22292 9.22215 3.04675ZM9.99998 12.8332C8.43445 12.8332 7.16665 11.5654 7.16665 9.99984C7.16665 8.43431 8.43445 7.1665 9.99998 7.1665C11.5655 7.1665 12.8333 8.43431 12.8333 9.99984C12.8333 11.5654 11.5655 12.8332 9.99998 12.8332ZM9.99998 16.3332C13.5011 16.3332 16.3333 13.501 16.3333 9.99984C16.3333 6.4987 13.5011 3.66651 9.99998 3.66651C6.49884 3.66651 3.66665 6.4987 3.66665 9.99984C3.66665 13.501 6.49884 16.3332 9.99998 16.3332Z" stroke="#6B6B6B"/>
</svg>
