<svg width="32" height="32" viewBox="0 0 32 32" fill="none" xmlns="http://www.w3.org/2000/svg">
<g id="Icon/left">
<path id="Vector" d="M17.7334 23.0669L11.6001 16.9336C11.4667 16.8002 11.3725 16.6558 11.3174 16.5002C11.2614 16.3447 11.2334 16.178 11.2334 16.0002C11.2334 15.8224 11.2614 15.6558 11.3174 15.5002C11.3725 15.3447 11.4667 15.2002 11.6001 15.0669L17.7334 8.93356C17.9778 8.68912 18.289 8.56689 18.6667 8.56689C19.0445 8.56689 19.3556 8.68912 19.6001 8.93356C19.8445 9.17801 19.9667 9.48912 19.9667 9.86689C19.9667 10.2447 19.8445 10.5558 19.6001 10.8002L14.4001 16.0002L19.6001 21.2002C19.8445 21.4447 19.9667 21.7558 19.9667 22.1336C19.9667 22.5113 19.8445 22.8224 19.6001 23.0669C19.3556 23.3113 19.0445 23.4336 18.6667 23.4336C18.289 23.4336 17.9778 23.3113 17.7334 23.0669Z" fill="black"/>
</g>
</svg>
