<svg width="18" height="18" viewBox="0 0 18 18" fill="none" xmlns="http://www.w3.org/2000/svg">
<g id="Icon/more">
<path id="Vector" d="M8.25 13.5C8.25 13.6989 8.32902 13.8897 8.46967 14.0303C8.61032 14.171 8.80109 14.25 9 14.25C9.19891 14.25 9.38968 14.171 9.53033 14.0303C9.67098 13.8897 9.75 13.6989 9.75 13.5C9.75 13.3011 9.67098 13.1103 9.53033 12.9697C9.38968 12.829 9.19891 12.75 9 12.75C8.80109 12.75 8.61032 12.829 8.46967 12.9697C8.32902 13.1103 8.25 13.3011 8.25 13.5ZM8.25 9C8.25 9.19891 8.32902 9.38968 8.46967 9.53033C8.61032 9.67098 8.80109 9.75 9 9.75C9.19891 9.75 9.38968 9.67098 9.53033 9.53033C9.67098 9.38968 9.75 9.19891 9.75 9C9.75 8.80109 9.67098 8.61032 9.53033 8.46967C9.38968 8.32902 9.19891 8.25 9 8.25C8.80109 8.25 8.61032 8.32902 8.46967 8.46967C8.32902 8.61032 8.25 8.80109 8.25 9ZM8.25 4.5C8.25 4.69891 8.32902 4.88968 8.46967 5.03033C8.61032 5.17098 8.80109 5.25 9 5.25C9.19891 5.25 9.38968 5.17098 9.53033 5.03033C9.67098 4.88968 9.75 4.69891 9.75 4.5C9.75 4.30109 9.67098 4.11032 9.53033 3.96967C9.38968 3.82902 9.19891 3.75 9 3.75C8.80109 3.75 8.61032 3.82902 8.46967 3.96967C8.32902 4.11032 8.25 4.30109 8.25 4.5Z" stroke="#A6A6A6" stroke-width="1.5" stroke-linecap="round" stroke-linejoin="round"/>
</g>
</svg>
