<svg width="38" height="38" viewBox="0 0 38 38" fill="none" xmlns="http://www.w3.org/2000/svg">
<g filter="url(#filter0_d_97_3237)">
<rect x="4" width="30" height="30" rx="4" fill="white" shape-rendering="crispEdges"/>
<path d="M19 22.5V18.3333M19 22.5C20.9891 22.5 22.8968 21.7098 24.3033 20.3033C25.7098 18.8968 26.5 16.9891 26.5 15M19 22.5C17.0109 22.5 15.1032 21.7098 13.6967 20.3033C12.2902 18.8968 11.5 16.9891 11.5 15M19 18.3333V11.6667M19 18.3333C23.1417 18.3333 26.5 16.8417 26.5 15M19 18.3333C14.8583 18.3333 11.5 16.8417 11.5 15M26.5 15C26.5 13.1583 23.1417 11.6667 19 11.6667M26.5 15C26.5 13.0109 25.7098 11.1032 24.3033 9.6967C22.8968 8.29018 20.9891 7.5 19 7.5M11.5 15C11.5 13.1583 14.8583 11.6667 19 11.6667M11.5 15C11.5 13.0109 12.2902 11.1032 13.6967 9.6967C15.1032 8.29018 17.0109 7.5 19 7.5M19 11.6667V7.5" stroke="#6B6B6B" stroke-width="1.5" stroke-linecap="round" stroke-linejoin="round"/>
</g>
<defs>
<filter id="filter0_d_97_3237" x="0" y="0" width="38" height="38" filterUnits="userSpaceOnUse" color-interpolation-filters="sRGB">
<feFlood flood-opacity="0" result="BackgroundImageFix"/>
<feColorMatrix in="SourceAlpha" type="matrix" values="0 0 0 0 0 0 0 0 0 0 0 0 0 0 0 0 0 0 127 0" result="hardAlpha"/>
<feOffset dy="4"/>
<feGaussianBlur stdDeviation="2"/>
<feComposite in2="hardAlpha" operator="out"/>
<feColorMatrix type="matrix" values="0 0 0 0 0 0 0 0 0 0 0 0 0 0 0 0 0 0 0.15 0"/>
<feBlend mode="normal" in2="BackgroundImageFix" result="effect1_dropShadow_97_3237"/>
<feBlend mode="normal" in="SourceGraphic" in2="effect1_dropShadow_97_3237" result="shape"/>
</filter>
</defs>
</svg>
